<svg width="50" height="81.6" viewBox="0 0 125 204" fill="none"
  xmlns="http://www.w3.org/2000/svg">
  <path fill-rule="evenodd" clip-rule="evenodd" d="M72 2L72 202H52L52 2H72Z" fill="#316CBE" stroke="#002864" stroke-width="4" />
  <path fill-rule="evenodd" clip-rule="evenodd" d="M79.9035 141.449C75.5342 156.253 72.5 175.152 72.5 202H52.5C52.5 173.598 55.7158 152.748 60.7215 135.787C65.7223 118.843 72.4057 106.178 78.687 94.4641C78.8712 94.1206 79.055 93.778 79.2383 93.4363C85.3264 82.0874 90.9102 71.6786 95.1458 58.174C99.483 44.3453 102.5 26.9047 102.5 2H122.5C122.5 28.5983 119.267 48.0967 114.229 64.1592C109.418 79.4993 103.045 91.3719 97.0598 102.523C96.8102 102.989 96.5612 103.453 96.313 103.915C90.0943 115.513 84.2777 126.628 79.9035 141.449Z" stroke="#002864" stroke-width="4" />
  <path fill-rule="evenodd" clip-rule="evenodd" d="M45.0965 141.449C49.4658 156.253 52.5 175.152 52.5 202H72.5C72.5 173.598 69.2842 152.748 64.2785 135.787C59.2777 118.843 52.5943 106.178 46.313 94.4641C46.1288 94.1206 45.945 93.778 45.7617 93.4363C39.6736 82.0874 34.0898 71.6786 29.8542 58.174C25.517 44.3453 22.5 26.9047 22.5 2H2.5C2.5 28.5983 5.73299 48.0967 10.7708 64.1592C15.582 79.4993 21.9546 91.3719 27.9402 102.523C28.1898 102.989 28.4388 103.453 28.687 103.915C34.9057 115.513 40.7223 126.628 45.0965 141.449Z" stroke="#002864" stroke-width="4" />
</svg>
