<svg width="50" height="81.6" viewBox="0 0 75 204" fill="none"
  xmlns="http://www.w3.org/2000/svg">
  <path fill-rule="evenodd" clip-rule="evenodd" d="M22 2L22 202H2L2 2H22Z" stroke="#002864" stroke-width="4" />
  <path fill-rule="evenodd" clip-rule="evenodd" d="M29.9035 141.449C25.5342 156.253 22.5 175.152 22.5 202H2.5C2.5 173.598 5.71584 152.748 10.7215 135.787C15.7223 118.843 22.4057 106.178 28.687 94.4641C28.8712 94.1206 29.055 93.778 29.2383 93.4363C35.3264 82.0874 40.9102 71.6786 45.1458 58.174C49.483 44.3453 52.5 26.9047 52.5 2H72.5C72.5 28.5983 69.267 48.0967 64.2292 64.1592C59.418 79.4993 53.0454 91.3719 47.0598 102.523C46.8102 102.989 46.5612 103.453 46.313 103.915C40.0943 115.513 34.2777 126.628 29.9035 141.449Z" fill="#316CBE" stroke="#002864" stroke-width="4" />
</svg>
